<?xml version="1.0" standalone="no"?>
<!DOCTYPE svg PUBLIC "-//W3C//DTD SVG 20010904//EN"
 "http://www.w3.org/TR/2001/REC-SVG-20010904/DTD/svg10.dtd">
<svg version="1.0" xmlns="http://www.w3.org/2000/svg"
 width="512.000000pt" height="512.000000pt" viewBox="0 0 512.000000 512.000000"
 preserveAspectRatio="xMidYMid meet">

<g transform="translate(0.000000,512.000000) scale(0.100000,-0.100000)"
fill="currentColor" stroke="none">
<path d="M2059 5105 c-461 -67 -846 -402 -975 -850 -37 -126 -44 -223 -44
-621 l0 -392 -187 -4 c-167 -4 -198 -8 -278 -32 -256 -77 -462 -281 -542 -541
l-28 -90 0 -955 0 -955 28 -90 c80 -259 283 -462 542 -542 l90 -28 891 0 890
0 41 27 c62 41 88 90 88 168 0 78 -26 127 -88 168 l-41 27 -865 5 -866 5 -58
23 c-111 45 -195 133 -234 246 -17 48 -18 111 -18 951 l0 900 23 58 c45 111
133 195 246 234 48 17 134 18 1566 18 1432 0 1518 -1 1566 -18 113 -39 202
-124 245 -234 21 -54 23 -78 28 -333 6 -267 7 -276 30 -313 13 -21 42 -50 64
-65 34 -22 52 -27 106 -27 79 0 128 25 169 88 l27 41 0 300 c-1 300 -1 301
-28 391 -80 259 -286 464 -542 541 -80 24 -111 28 -277 32 l-187 4 -4 432 c-3
364 -7 443 -21 506 -77 329 -275 602 -561 772 -230 137 -523 193 -796 153z
m386 -411 c239 -65 443 -240 534 -457 56 -136 61 -187 61 -612 l0 -385 -801 0
-800 0 3 423 4 422 27 80 c74 219 222 384 431 480 66 31 152 57 221 69 57 9
260 -3 320 -20z"/>
<path d="M4855 1887 c-16 -7 -40 -18 -52 -25 -12 -6 -252 -334 -533 -727 -479
-669 -515 -716 -550 -726 -21 -6 -50 -9 -65 -5 -16 4 -158 135 -369 340 -278
271 -351 336 -389 351 -93 35 -196 -6 -241 -97 -14 -28 -26 -68 -26 -88 0 -75
36 -120 316 -394 458 -446 473 -459 609 -497 79 -22 227 -17 300 11 78 30 150
77 201 131 55 59 1022 1412 1045 1464 44 97 3 205 -95 251 -55 26 -104 29
-151 11z"/>
<path d="M1052 1849 c-48 -14 -109 -80 -123 -131 -23 -89 12 -182 88 -229 57
-36 154 -34 210 3 62 41 88 90 88 168 0 77 -26 127 -85 166 -43 29 -125 39
-178 23z"/>
<path d="M1802 1849 c-48 -14 -109 -80 -123 -131 -23 -89 12 -182 88 -229 57
-36 154 -34 210 3 62 41 88 90 88 168 0 77 -26 127 -85 166 -43 29 -125 39
-178 23z"/>
<path d="M2552 1849 c-48 -14 -109 -80 -123 -131 -23 -89 12 -182 88 -229 57
-36 154 -34 210 3 62 41 88 90 88 168 0 77 -26 127 -85 166 -43 29 -125 39
-178 23z"/>
<path d="M3312 1849 c-48 -14 -109 -80 -123 -131 -23 -89 12 -182 88 -229 57
-36 154 -34 210 3 62 41 88 90 88 168 0 77 -26 127 -85 166 -43 29 -125 39
-178 23z"/>
</g>
</svg>
