<?xml version="1.0" standalone="no"?>
<!DOCTYPE svg PUBLIC "-//W3C//DTD SVG 20010904//EN"
 "http://www.w3.org/TR/2001/REC-SVG-20010904/DTD/svg10.dtd">
<svg version="1.0" xmlns="http://www.w3.org/2000/svg"
 width="150.000000pt" height="150.000000pt" viewBox="0 0 150.000000 150.000000"
 preserveAspectRatio="xMidYMid meet">

<g transform="translate(0.000000,150.000000) scale(0.100000,-0.100000)"
fill="currentColor" stroke="none">
<path d="M1116 1293 c-10 -14 -39 -34 -64 -45 -40 -18 -56 -20 -136 -13 -50 5
-140 9 -201 9 -101 1 -115 -1 -167 -27 -67 -33 -155 -123 -189 -194 -34 -71
-39 -207 -10 -284 57 -150 227 -249 406 -236 134 9 246 73 320 184 65 96 87
175 93 325 4 118 -11 293 -27 302 -3 2 -14 -7 -25 -21z m-198 -216 c23 -11 49
-28 57 -37 13 -15 12 -19 -14 -44 l-28 -27 -39 26 c-33 23 -47 26 -93 22 -47
-3 -59 -9 -88 -40 -32 -35 -33 -40 -33 -117 0 -128 -35 -185 -114 -185 -31 0
-52 8 -80 29 l-38 29 31 30 c29 30 31 30 50 13 11 -10 28 -16 38 -14 16 3 19
17 23 104 5 103 7 109 59 167 68 75 171 92 269 44z m-248 14 c0 -9 -68 -81
-76 -81 -2 0 -4 20 -4 45 l0 45 40 0 c22 0 40 -4 40 -9z m260 -226 c0 -48 -9
-55 -66 -55 l-54 0 0 38 c0 21 2 41 4 43 2 2 29 2 60 1 51 -4 56 -6 56 -27z
m97 -26 c-8 -66 -38 -113 -94 -146 -61 -35 -148 -37 -210 -5 -48 25 -47 22
-32 73 l12 38 36 -25 c43 -29 109 -32 152 -7 30 18 59 67 59 102 0 18 6 21 41
21 l42 0 -6 -51z"/>
</g>
</svg>
